<?xml version="1.0" encoding="UTF-8"?>
<svg width="83px" height="94px" viewBox="0 0 83 94" version="1.1" xmlns="http://www.w3.org/2000/svg" xmlns:xlink="http://www.w3.org/1999/xlink">
    <!-- Generator: sketchtool 61 (101010) - https://sketch.com -->
    <title>152C61CA-0E83-491D-9D6B-F6DD494DB9BD</title>
    <desc>Created with sketchtool.</desc>
    <g id="Welcome" stroke="none" stroke-width="1" fill="none" fill-rule="evenodd">
        <g id="Technologies-Tiles" transform="translate(-1179.000000, -451.000000)">
            <g id="Shopify" transform="translate(1135.000000, 451.000000)">
                <g id="icon-shopify" transform="translate(44.000000, 0.000000)">
                    <path d="M37.9273725,3.238569 C38.448837,3.238569 38.973636,3.4152975 39.4761195,3.761316 C35.6065605,5.581953 31.458699,10.1684295 29.7070605,19.326762 C27.146934,20.119347 24.6447765,20.893977 22.331403,21.610638 C24.38289,14.6253735 29.2551075,3.238569 37.9273725,3.238569 Z M41.515038,6.634116 C42.257349,8.4950235 42.740082,11.164932 42.740082,14.768244 C42.740082,14.952411 42.7387995,15.1209315 42.7372605,15.2917605 C39.7987965,16.2018225 36.6058845,17.1898605 33.4057905,18.181233 C35.202573,11.2467555 38.5706745,7.8978915 41.515038,6.634116 Z M50.422257,12.9134925 C49.0810185,13.3285095 47.556639,13.800213 45.9040095,14.311674 C45.9055485,13.993614 45.9070875,13.6799145 45.9070875,13.3377435 C45.9070875,10.351827 45.49284,7.9481655 44.827992,6.0423705 C47.49867,6.3778725 49.2774975,9.416115 50.422257,12.9134925 Z M72.1065105,18.228429 C72.0418725,17.7577515 71.629677,17.497404 71.289045,17.4689325 C70.948926,17.440461 63.7528185,16.9071975 63.7528185,16.9071975 C63.7528185,16.9071975 58.755429,11.9454615 58.207032,11.3965515 C57.658122,10.8476415 56.5862085,11.0143665 56.170422,11.1369735 C56.108862,11.155185 55.078245,11.473245 53.3732895,12.0003525 C51.703731,7.196877 48.757572,2.781999 43.57422,2.781999 C43.4313495,2.781999 43.2841185,2.788155 43.1363745,2.796363 C41.662269,0.846963 39.8362455,0 38.2592835,0 C26.185059,0 20.416374,15.0937425 18.607536,22.7646315 C13.9158945,24.218217 10.582677,25.2516555 10.1571435,25.3855485 C7.5382785,26.2068615 7.455429,26.2894545 7.1119755,28.757241 C6.8523975,30.6253305 0,83.617974 0,83.617974 L53.395092,93.6225 L82.326753,87.3636435 C82.326753,87.3636435 72.170379,18.699363 72.1065105,18.228429 L72.1065105,18.228429 Z" id="Fill-1" fill="#8CB849"></path>
                    <path d="M71.289045,17.4689325 C70.948926,17.440461 63.7528185,16.9071975 63.7528185,16.9071975 C63.7528185,16.9071975 58.755429,11.9454615 58.207032,11.3965515 C58.0015755,11.1918645 57.724812,11.087469 57.4352235,11.042325 L53.39817,93.6217305 L82.326753,87.3636435 C82.326753,87.3636435 72.170379,18.699363 72.1065105,18.228429 C72.0418725,17.7577515 71.629677,17.497404 71.289045,17.4689325" id="Fill-3" fill="#5A873E"></path>
                    <path d="M43.57422,33.454782 L40.0070745,44.0659305 C40.0070745,44.0659305 36.8813655,42.397911 33.0502815,42.397911 C27.4334445,42.397911 27.1507815,45.9229905 27.1507815,46.81125 C27.1507815,51.6578175 39.7844325,53.5148775 39.7844325,64.8670545 C39.7844325,73.7978715 34.11963,79.549371 26.4813165,79.549371 C17.3155455,79.549371 12.628521,73.844811 12.628521,73.844811 L15.0824565,65.7360765 C15.0824565,65.7360765 19.900296,69.872652 23.966334,69.872652 C26.6229045,69.872652 27.703539,67.781151 27.703539,66.252924 C27.703539,59.930712 17.338887,59.6488185 17.338887,49.260825 C17.338887,40.517766 23.6141595,32.0566005 36.281925,32.0566005 C41.16312,32.0566005 43.57422,33.454782 43.57422,33.454782" id="Fill-5" fill="#FFFFFE"></path>
                </g>
            </g>
        </g>
    </g>
</svg>